<?xml version="1.0" encoding="utf-8"?>
<!-- Generator: Adobe Illustrator 19.2.1, SVG Export Plug-In . SVG Version: 6.00 Build 0)  -->
<svg version="1.1" id="Layer_1" xmlns="http://www.w3.org/2000/svg" xmlns:xlink="http://www.w3.org/1999/xlink" x="0px" y="0px"
	 viewBox="0 0 150 150" style="enable-background:new 0 0 150 150;" xml:space="preserve">
<style type="text/css">
	.st0{fill:#FEFEFE;}
	.st1{fill:#2D2925;}
	.st2{fill:none;}
</style>
<title>BKN</title>
<desc>Created with Sketch.</desc>
<g id="Page-1_1_">
	<g id="BKN">
		<g id="Page-1">
			<g id="Group-3" transform="translate(26.000000, 25.107881)">
				<path id="Fill-1" class="st0" d="M97.3,15.6l0-4.4l-2.6-1.3c-0.8-0.4-19.5-9.7-45.4-9.7h-1.2c-26,0-44.6,9.3-45.4,9.7l-2.6,1.3
					l0,4.3c-0.2,11,1.2,39.1,18.4,60.9c14.1,17.9,27.5,22.1,29,22.5l1.3,0.4l1.3-0.4c0.6-0.2,14.3-4.2,28.8-22.5
					C96.2,54.6,97.5,26.6,97.3,15.6"/>
			</g>
			<path id="Fill-4" class="st1" d="M120.6,40.7c0-1,0-1.5,0-1.5V38l-1.1-0.5c-0.8-0.4-18.9-9.4-44.2-9.4h-1.2
				c-25.2,0-43.4,9-44.2,9.4L28.9,38v1.2c0,0,0,0.5,0,1.5c-0.2,10.7,1.1,38,17.8,59.2C60.2,117,72.9,121,74.3,121.4l0.5,0.2l0.5-0.2
				c0.5-0.2,13.5-3.9,27.4-21.6C119.5,78.6,120.8,51.4,120.6,40.7"/>
			<path id="Fill-6" class="st0" d="M74.8,118.6c-1-0.3-13.1-4-26.1-20.5C31.7,76.5,31.6,48,31.7,41.3c0-0.9,0-1.5,0-1.5s0,0,0.1,0
				v-0.1l0.4-0.2c0.9-0.4,2.9-1.3,5.9-2.4c7.3-2.7,20.3-6.4,36.1-6.4h1.2c15.8,0,28.8,3.7,36.1,6.4c3,1.1,5,2,5.9,2.4l0.4,0.2v0.1
				c0,0,0.1,0,0.1,0s0,0.5,0,1.5c0.1,6.7,0.1,35.1-17,56.8C87.7,114.7,75.8,118.4,74.8,118.6 M101.6,98.9
				c16.3-20.7,17.6-47.5,17.4-58c0-1,0-1.5,0-1.5V39l-0.4-0.2c-0.7-0.4-18.5-9.2-43.3-9.2h-1.2c-24.8,0-42.6,8.8-43.3,9.2L30.5,39
				v0.4c0,0,0,0.5,0,1.5c-0.2,10.6,1.1,37.3,17.4,58c13.2,16.8,25.4,20.6,26.8,21l0.2,0l0.2,0C75.5,119.7,88,116.1,101.6,98.9"/>
			<path id="Fill-8" class="st0" d="M106.3,53.3c-6.1-6.3-6.8-7.3-6.8-9.9c0-2.6,1.1-2.9,2.2-2.9c0.6,0,1.3,0.1,2.1,0.3
				c4.4,1.3,4.4,3.7,4.4,5.4v2.5c0,0.2,0.1,0.4,0.3,0.4c1.1,0.4,1.6,0.5,2.7,1c0.1,0.1,0.3,0,0.4-0.1c0.1-0.1,0.2-0.2,0.2-0.4v-2.1
				c0-2.7,0-7.2-7.9-9.4c-5.5-1.6-8.3,0.1-8.3,4.9c0,4,2.4,6.3,6.5,10.3l0.8,0.8c4.8,4.7,5.7,6.2,5.7,9.2c0,1.1-0.2,1.8-0.5,2.3
				c-0.3,0.5-0.9,0.7-1.7,0.7c-0.6,0-1.4-0.1-2.4-0.4c-2.1-0.6-3.6-1.4-4.5-2.4c-1.1-1.2-1.1-2.3-1.1-4.4v-2.3
				c0-0.2-0.2-0.4-0.4-0.5c-1.2-0.3-1.7-0.4-2.9-0.6c-0.1,0-0.3,0-0.4,0.1c-0.1,0.1-0.2,0.2-0.2,0.4v4c0,3.8,3.1,6.6,8.9,8.3
				c1.6,0.5,3.1,0.7,4.2,0.7c4.6,0,4.6-3.7,4.6-5.2C112.5,59.8,110.4,57.5,106.3,53.3 M94.1,36.3c-5.8-1.1-11.7-1.6-17.6-1.7
				c-0.1,0-0.3,0-0.3,0.1C76,34.8,76,34.9,76,35v1.8c0,0.3,0.2,0.5,0.5,0.5c2.8,0,4.2,0.1,6.8,0.3V64c0,0.2,0.2,0.5,0.4,0.5
				c1.2,0.1,1.7,0.1,2.9,0.3c0,0,0,0,0,0c0.1,0,0.2,0,0.3-0.1c0.1-0.1,0.2-0.2,0.2-0.4V38c2.6,0.3,4.1,0.5,6.8,1
				c0.1,0,0.3,0,0.4-0.1c0.1-0.1,0.2-0.2,0.2-0.4v-1.8C94.5,36.5,94.3,36.3,94.1,36.3 M73.6,34.6c-4.9,0.1-9.9,0.5-14.8,1.3
				c-0.2,0-0.4,0.2-0.4,0.5v28.6c0,0.1,0.1,0.3,0.2,0.4c0.1,0.1,0.2,0.1,0.3,0.1c0,0,0,0,0.1,0c4.8-0.8,9.7-1.2,14.6-1.3
				c0.3,0,0.5-0.2,0.5-0.5v-1.8c0-0.1,0-0.3-0.1-0.3c-0.1-0.1-0.2-0.1-0.3-0.1c-4.6,0.1-7,0.2-11.4,0.8V50.9
				c3.6-0.5,5.5-0.6,9.3-0.8c0.3,0,0.5-0.2,0.5-0.5v-1.7c0-0.1-0.1-0.3-0.1-0.3c-0.1-0.1-0.2-0.1-0.3-0.1c-3.7,0.1-5.7,0.3-9.2,0.8
				v-10c4.4-0.6,6.8-0.7,11.4-0.8c0.3,0,0.5-0.2,0.5-0.5v-1.8c0-0.1-0.1-0.3-0.1-0.3C73.8,34.7,73.7,34.6,73.6,34.6 M54.7,36.7
				c-1.1,0.2-1.7,0.3-2.8,0.6c-0.2,0-0.4,0.2-0.4,0.5l0.2,20.8c0,1.4,0,2.6,0.1,3.8c-2.8-7.2-5.7-14.6-8.7-22.1
				c-0.1-0.2-0.4-0.4-0.6-0.3c-1.7,0.5-2.5,0.8-4.1,1.4c-0.2,0.1-0.3,0.2-0.3,0.4v28.6c0,0.2,0.1,0.3,0.2,0.4
				c0.1,0.1,0.2,0.1,0.3,0.1c0.1,0,0.1,0,0.2,0c1-0.4,1.5-0.6,2.6-0.9c0.2-0.1,0.3-0.2,0.3-0.4c0-6.8-0.1-13.5-0.1-20.3
				c0-1.8,0-2.8-0.1-4c2.9,7.5,5.8,14.8,8.5,21.7c0.1,0.2,0.3,0.4,0.6,0.3c1.7-0.4,2.6-0.6,4.3-1c0.2,0,0.4-0.2,0.4-0.5V37.1
				c0-0.1-0.1-0.3-0.2-0.4C54.9,36.7,54.8,36.6,54.7,36.7"/>
			<path id="Fill-10" class="st0" d="M90.7,101.3c-0.3,0.2-0.5,0.4-0.9,0.6c-0.8,0.6-1.6,1-2.4,1.5c-0.4,0.2-0.8,0.5-1.2,0.7
				c-2.8,1.8-6.2,3.7-9.9,4.8c-1.1,0.3-2,0.6-3,0.7c-0.9,0.1-1.7,0.2-2.5,0.2h-0.2c-1.1,0-2.1-0.1-3.1-0.3c3.8,1.4,8.1,1.6,12.3,0.6
				c2.4-0.6,4.6-1.6,6.6-2.9c1.9-1.5,3.4-3.6,4.4-6.1C90.8,101.2,90.8,101.3,90.7,101.3L90.7,101.3z M71.4,108.8
				c2.4-0.3,4.4-0.9,6.7-2c0.3-0.2,0.7-0.3,1-0.5c0.3-0.1,0.6-0.3,0.8-0.4c1.9-1,4-2.1,6.5-3.5c0.9-0.5,1.8-1,2.6-1.5l1-0.6
				c0.4-0.2,0.8-0.4,1.1-0.6c0,0,0.1,0,0.1-0.1c0.3-1.2,0.5-2.5,0.6-3.8c-2.5,1.2-6.2,2.3-11.7,3.4c-7,1.4-13.8,0.8-19.9-1.8
				c-4.1-1.7-6-4.1-6.9-5.4c0.1,0.9,0.3,1.9,0.5,2.8c1.3,5.3,4.6,9.7,8.9,12.5l0,0l0.6,0.4c0.5,0.3,1.1,0.5,1.8,0.7
				c1.3,0.4,2.6,0.6,4,0.6C70,108.9,70.7,108.9,71.4,108.8L71.4,108.8z M93.2,99.9C93.2,99.8,93.1,99.8,93.2,99.9
				c-0.1-0.1-0.3-0.1-0.6,0.1c-0.1,0-0.1,0.1-0.2,0.1c0,0-0.1,0.1-0.1,0.1c-0.5,1.4-1.2,2.7-2,3.9c1.2-1.2,2.2-2.6,3-4.1h0
				L93.2,99.9z M94,94.6c-0.1,0.1-0.1,0.1-0.2,0.2c-0.1,0.1-0.2,0.2-0.4,0.3c-0.1,1.3-0.4,2.7-0.7,4c0.7-0.2,0.9,0,1,0.2
				c0,0,0,0,0,0.1c1.1-2.2,1.8-4.5,2.1-7C95.4,93.1,94.9,94,94,94.6L94,94.6z M93.5,93.4c0.1,0,0.1-0.1,0.2-0.1
				c1.8-1.2,2.2-3.3,2.3-3.6c0-1.7-0.2-3.4-0.6-5.1c0-0.1,0-0.1-0.1-0.2c-0.2,1.6-0.9,3-2.3,4.3C93.3,90.3,93.5,91.9,93.5,93.4
				L93.5,93.4z M61.6,96c5,1.7,7.8,2.2,11.5,2.2c1.3,0,2.9-0.1,4.8-0.2c5.4-0.5,11-2.2,14.1-3.7c0-1.5-0.1-3-0.4-4.5
				c-0.9,0.5-1.9,0.8-3.2,0.8c-1.3,0-2.8-0.2-5.3-0.8c-2.9-0.7-7.1-3.2-10.8-5.4c-2-1.2-3.9-2.4-5.5-3.1c-6-3-9.5-2.6-10.4-2.4
				c-2.2,3.6-3.2,7.8-3,12.1C53.9,91.6,55.9,94.1,61.6,96L61.6,96z M64.7,78.7c2.1,0.9,4.7,2.3,7.6,3.8c4.5,2.4,9.1,4.9,12.3,5.7
				c2.8,0.7,5.1,0.6,6.7-0.2c0,0,0-0.1,0-0.1c0-0.1,0-0.2-0.1-0.3c-1.4-5.7-8.5-18.3-20.9-18.3c-0.5,0-1.1,0-1.6,0.1
				c-4.8,1.4-8.7,4.3-11.4,8.1c0.5-0.1,1-0.3,1.9-0.3C60.6,77.3,62.5,77.8,64.7,78.7L64.7,78.7z M92.5,87.2c0.3-0.3,0.6-0.7,0.8-1.1
				c1.5-2.9,0.2-6.1-0.4-7.2C88.7,72,80.8,67.9,72.6,68.7C81.1,69.2,89.4,76.8,92.5,87.2L92.5,87.2z"/>
			<path id="Fill-12" class="st0" d="M83.1,94c0-1.5,0-3.8-1.8-5.6c0.2-0.3,0.4-0.7,0.5-1.1c0.3-0.9,0.3-1.9,0.3-2.6l0-4.3v-0.1
				c0-1.6-0.3-3.3-1.6-4.7c-1.2-1.3-2.9-2-5.1-2l-5.8,0c-0.6,0-1.3,0.2-1.7,0.7c-0.4,0.4-0.7,1.1-0.7,1.7l0.1,28
				c0,0.8,0.4,1.6,1.1,2c0.4,0.2,0.8,0.4,1.3,0.4l5.9,0c2.1,0,3.9-0.6,5.3-1.8l0,0c1.9-1.7,2.1-3.8,2.2-5.8v0L83.1,94z"/>
			<path id="Fill-14" class="st1" d="M75.3,87.1c-0.5,0.1-0.7,0.2-1.8,0.2l-1.1,0c-0.2,0-0.2-0.1-0.2-0.2c0-0.1,0-9,0-9
				c0-0.1,0-0.2,0.2-0.2H74h0.1c0.8,0,1.7,0,2.2,0.4c0.3,0.2,0.4,0.4,0.5,0.6c0.1,0.3,0.2,0.7,0.2,1.5l0,3.5c0,0.1,0,0.1,0,0.3
				C77.1,85.1,77.1,86.6,75.3,87.1L75.3,87.1z M77.3,101.6c-0.4,0.3-1,0.5-2.3,0.5c0,0-2.3,0-2.5,0c-0.2,0-0.3-0.1-0.3-0.3
				c0-1.7,0-11.1,0-11.2c0-0.1,0-0.2,0.2-0.2c0.2,0,1.2,0,1.2,0c1.2,0.1,2.5,0.2,3.3,0.7c0.5,0.3,0.8,0.7,1,1.2
				c0.2,0.6,0.2,1.2,0.2,1.8l0,4.1C78.2,100.2,78.1,101.1,77.3,101.6L77.3,101.6z M81.6,94.2c0-1.6,0-3.5-1.6-4.8
				c-0.3-0.3-0.7-0.5-1.2-0.7c0.8-0.5,1.3-1.2,1.6-2.1c0.3-0.8,0.2-1.8,0.2-2.1l0-4.4c0-1.2-0.2-2.6-1.2-3.8c-0.9-1-2.2-1.5-3.9-1.5
				l-6,0c-0.2,0-0.3,0.1-0.5,0.2c-0.1,0.1-0.2,0.3-0.2,0.5l0.1,29.2c0,0.2,0.1,0.5,0.3,0.6c0.1,0.1,0.2,0.1,0.4,0.1l6.1,0
				c0.6,0,2.6,0,4.3-1.4c1.5-1.3,1.6-2.9,1.7-4.7L81.6,94.2z"/>
			<rect id="Rectangle" y="0" class="st2" width="150" height="150"/>
		</g>
	</g>
</g>
</svg>
